# xmcd
#
# Track frame offsets: 
#        150
#        9935
#        26496
#        39801
#        53261
#        64876
#        87974
#        100117
#        114942
#        129748
#        147903
#
# Disc length: 2133 seconds
#
# Revision: 0
# Processed by: cddbd v1.5.2PL0 Copyright (c) Steve Scherf et al.
# Submitted via: ExactAudioCopyFreeDBPlugin 1.0
#
DISCID=7d08530b
DTITLE=Marie Hodson - Chances Are
DYEAR=1900
DGENRE=Country
TTITLE0=Oh Lord I'm Tired
TTITLE1=Chances Are
TTITLE2=Old Fashioned Love
TTITLE3=Don't Touch Me
TTITLE4=Key's In The Mailbox
TTITLE5=Don't You Ever Get Tired Of Hurtin Me
TTITLE6=A-11
TTITLE7=Back To Earth
TTITLE8=Tweedle Dee
TTITLE9=Someone You Know So Well
TTITLE10=You're Still On My Mind
EXTD=
EXTT0=
EXTT1=
EXTT2=
EXTT3=
EXTT4=
EXTT5=
EXTT6=
EXTT7=
EXTT8=
EXTT9=
EXTT10=
PLAYORDER=
